{
  "accessors": [
    {
      "bufferView": 2,
      "componentType": 5126,
      "count": 7079,
      "max": [
        12.916259765625,
        13.179779052734375,
        22.96417236328125
      ],
      "min": [
        -12.664825439453125,
        -39.535888671875,
        0.5423280000686646
      ],
      "type": "VEC3"
    },
    {
      "bufferView": 2,
      "byteOffset": 84948,
      "componentType": 5126,
      "count": 7079,
      "max": [
        1.0,
        1.0,
        1.0
      ],
      "min": [
        -1.0,
        -1.0,
        -1.0
      ],
      "type": "VEC3"
    },
    {
      "bufferView": 1,
      "componentType": 5126,
      "count": 7079,
      "max": [
        0.5808219909667969,
        0.9823979735374451
      ],
      "min": [
        0.1373949944972992,
        0.46691301465034485
      ],
      "type": "VEC2"
    },
    {
      "bufferView": 0,
      "componentType": 5125,
      "count": 13968,
      "type": "SCALAR"
    },
    {
      "bufferView": 2,
      "byteOffset": 169896,
      "componentType": 5126,
      "count": 6802,
      "max": [
        12.934295654296875,
        13.179779052734375,
        22.53546142578125
      ],
      "min": [
        -8.7822265625,
        -39.0897216796875,
        7.438292980194092
      ],
      "type": "VEC3"
    },
    {
      "bufferView": 2,
      "byteOffset": 251520,
      "componentType": 5126,
      "count": 6802,
      "max": [
        1.0,
        1.0,
        0.9999158978462219
      ],
      "min": [
        -1.0,
        -1.0,
        -0.9999160170555115
      ],
      "type": "VEC3"
    },
    {
      "bufferView": 1,
      "byteOffset": 56632,
      "componentType": 5126,
      "count": 6802,
      "max": [
        0.5851879715919495,
        0.9791929721832275
      ],
      "min": [
        0.12845399975776672,
        0.4690679907798767
      ],
      "type": "VEC2"
    },
    {
      "bufferView": 0,
      "byteOffset": 55872,
      "componentType": 5125,
      "count": 14940,
      "type": "SCALAR"
    },
    {
      "bufferView": 2,
      "byteOffset": 333144,
      "componentType": 5126,
      "count": 5462,
      "max": [
        11.808807373046875,
        12.947265625,
        23.03863525390625
      ],
      "min": [
        -12.686981201171875,
        -39.7589111328125,
        0.5423280000686646
      ],
      "type": "VEC3"
    },
    {
      "bufferView": 2,
      "byteOffset": 398688,
      "componentType": 5126,
      "count": 5462,
      "max": [
        1.0,
        1.0,
        1.0
      ],
      "min": [
        -1.0,
        -1.0,
        -1.0
      ],
      "type": "VEC3"
    },
    {
      "bufferView": 1,
      "byteOffset": 111048,
      "componentType": 5126,
      "count": 5462,
      "max": [
        0.5854330062866211,
        0.9823979735374451
      ],
      "min": [
        0.13669100403785706,
        0.4641079902648926
      ],
      "type": "VEC2"
    },
    {
      "bufferView": 0,
      "byteOffset": 115632,
      "componentType": 5125,
      "count": 14988,
      "type": "SCALAR"
    },
    {
      "bufferView": 2,
      "byteOffset": 464232,
      "componentType": 5126,
      "count": 5300,
      "max": [
        9.48094654083252,
        4.260158061981201,
        20.556955337524414
      ],
      "min": [
        -7.2723541259765625,
        -39.7589111328125,
        0.21209700405597687
      ],
      "type": "VEC3"
    },
    {
      "bufferView": 2,
      "byteOffset": 527832,
      "componentType": 5126,
      "count": 5300,
      "max": [
        1.0,
        1.0,
        1.0
      ],
      "min": [
        -1.0,
        -1.0,
        -1.0
      ],
      "type": "VEC3"
    },
    {
      "bufferView": 1,
      "byteOffset": 154744,
      "componentType": 5126,
      "count": 5300,
      "max": [
        0.9805099964141846,
        0.9823979735374451
      ],
      "min": [
        0.13669100403785706,
        0.34964999556541443
      ],
      "type": "VEC2"
    },
    {
      "bufferView": 0,
      "byteOffset": 175584,
      "componentType": 5125,
      "count": 14892,
      "type": "SCALAR"
    },
    {
      "bufferView": 2,
      "byteOffset": 591432,
      "componentType": 5126,
      "count": 5466,
      "max": [
        13.10278034210205,
        6.263526916503906,
        23.06305503845215
      ],
      "min": [
        -12.840167999267578,
        -32.1312255859375,
        5.681580066680908
      ],
      "type": "VEC3"
    },
    {
      "bufferView": 2,
      "byteOffset": 657024,
      "componentType": 5126,
      "count": 5466,
      "max": [
        1.0,
        1.0,
        1.0
      ],
      "min": [
        -1.0,
        -1.0,
        -1.0
      ],
      "type": "VEC3"
    },
    {
      "bufferView": 1,
      "byteOffset": 197144,
      "componentType": 5126,
      "count": 5466,
      "max": [
        0.9805099964141846,
        0.9892410039901733
      ],
      "min": [
        0.2007959932088852,
        0.34126898646354675
      ],
      "type": "VEC2"
    },
    {
      "bufferView": 0,
      "byteOffset": 235152,
      "componentType": 5125,
      "count": 14808,
      "type": "SCALAR"
    },
    {
      "bufferView": 2,
      "byteOffset": 722616,
      "componentType": 5126,
      "count": 2136,
      "max": [
        13.072507858276367,
        5.368679046630859,
        22.783540725708008
      ],
      "min": [
        -12.786066055297852,
        -31.7021484375,
        -0.022552000358700752
      ],
      "type": "VEC3"
    },
    {
      "bufferView": 2,
      "byteOffset": 748248,
      "componentType": 5126,
      "count": 2136,
      "max": [
        1.0,
        1.0,
        0.9919752478599548
      ],
      "min": [
        -1.0,
        -1.0,
        -0.9993772506713867
      ],
      "type": "VEC3"
    },
    {
      "bufferView": 1,
      "byteOffset": 240872,
      "componentType": 5126,
      "count": 2136,
      "max": [
        0.5384050011634827,
        0.9531999826431274
      ],
      "min": [
        0.0,
        0.0
      ],
      "type": "VEC2"
    },
    {
      "bufferView": 0,
      "byteOffset": 294384,
      "componentType": 5125,
      "count": 7770,
      "type": "SCALAR"
    },
    {
      "bufferView": 2,
      "byteOffset": 773880,
      "componentType": 5126,
      "count": 42660,
      "max": [
        13.8199462890625,
        39.7589111328125,
        28.489990234375
      ],
      "min": [
        -13.8199462890625,
        -39.535888671875,
        0.8500670194625854
      ],
      "type": "VEC3"
    },
    {
      "bufferView": 2,
      "byteOffset": 1285800,
      "componentType": 5126,
      "count": 42660,
      "max": [
        1.0,
        1.0,
        1.0
      ],
      "min": [
        -1.0,
        -1.0,
        -1.0
      ],
      "type": "VEC3"
    },
    {
      "bufferView": 1,
      "byteOffset": 257960,
      "componentType": 5126,
      "count": 42660,
      "max": [
        0.9900400042533875,
        0.9900649785995483
      ],
      "min": [
        0.009723999537527561,
        0.010289999656379223
      ],
      "type": "VEC2"
    },
    {
      "bufferView": 0,
      "byteOffset": 325464,
      "componentType": 5125,
      "count": 62712,
      "type": "SCALAR"
    },
    {
      "bufferView": 2,
      "byteOffset": 1797720,
      "componentType": 5126,
      "count": 1344,
      "max": [
        3.8744659423828125,
        -14.099854469299316,
        18.54449462890625
      ],
      "min": [
        -3.874450922012329,
        -32.640380859375,
        10.7955322265625
      ],
      "type": "VEC3"
    },
    {
      "bufferView": 2,
      "byteOffset": 1813848,
      "componentType": 5126,
      "count": 1344,
      "max": [
        0.9696831107139587,
        1.0,
        0.8378711938858032
      ],
      "min": [
        -0.971477210521698,
        -1.0,
        -0.8378686904907227
      ],
      "type": "VEC3"
    },
    {
      "bufferView": 1,
      "byteOffset": 599240,
      "componentType": 5126,
      "count": 1344,
      "max": [
        0.5449470281600952,
        0.9779220223426819
      ],
      "min": [
        0.13789500296115875,
        0.8241479992866516
      ],
      "type": "VEC2"
    },
    {
      "bufferView": 0,
      "byteOffset": 576312,
      "componentType": 5125,
      "count": 7032,
      "type": "SCALAR"
    }
  ],
  "asset": {
    "extras": {
      "author": "Wolf van Veen (https://sketchfab.com/wolfvanveen)",
      "license": "CC-BY-4.0 (http://creativecommons.org/licenses/by/4.0/)",
      "source": "https://sketchfab.com/3d-models/satellite-9be57c6e0b48411ebba7725c8267f264",
      "title": "Satellite"
    },
    "generator": "Sketchfab-12.68.0",
    "version": "2.0"
  },
  "bufferViews": [
    {
      "buffer": 0,
      "byteLength": 604440,
      "name": "floatBufferViews",
      "target": 34963
    },
    {
      "buffer": 0,
      "byteLength": 609992,
      "byteOffset": 604440,
      "byteStride": 8,
      "name": "floatBufferViews",
      "target": 34962
    },
    {
      "buffer": 0,
      "byteLength": 1829976,
      "byteOffset": 1214432,
      "byteStride": 12,
      "name": "floatBufferViews",
      "target": 34962
    }
  ],
  "buffers": [
    {
      "byteLength": 3044408,
      "uri": "scene.bin"
    }
  ],
  "extensionsRequired": [
    "KHR_materials_pbrSpecularGlossiness"
  ],
  "extensionsUsed": [
    "KHR_materials_pbrSpecularGlossiness"
  ],
  "images": [
    {
      "uri": "textures/blinn1SG_diffuse.png"
    },
    {
      "uri": "textures/blinn1SG_specularGlossiness.png"
    }
  ],
  "materials": [
    {
      "extensions": {
        "KHR_materials_pbrSpecularGlossiness": {
          "diffuseFactor": [
            1.0,
            1.0,
            1.0,
            1.0
          ],
          "diffuseTexture": {
            "index": 0
          },
          "glossinessFactor": 0.9,
          "specularFactor": [
            1.0,
            1.0,
            1.0
          ],
          "specularGlossinessTexture": {
            "index": 1
          }
        }
      },
      "name": "blinn1SG"
    }
  ],
  "meshes": [
    {
      "name": "Object_0",
      "primitives": [
        {
          "attributes": {
            "NORMAL": 1,
            "POSITION": 0,
            "TEXCOORD_0": 2
          },
          "indices": 3,
          "material": 0,
          "mode": 4
        }
      ]
    },
    {
      "name": "Object_1",
      "primitives": [
        {
          "attributes": {
            "NORMAL": 5,
            "POSITION": 4,
            "TEXCOORD_0": 6
          },
          "indices": 7,
          "material": 0,
          "mode": 4
        }
      ]
    },
    {
      "name": "Object_2",
      "primitives": [
        {
          "attributes": {
            "NORMAL": 9,
            "POSITION": 8,
            "TEXCOORD_0": 10
          },
          "indices": 11,
          "material": 0,
          "mode": 4
        }
      ]
    },
    {
      "name": "Object_3",
      "primitives": [
        {
          "attributes": {
            "NORMAL": 13,
            "POSITION": 12,
            "TEXCOORD_0": 14
          },
          "indices": 15,
          "material": 0,
          "mode": 4
        }
      ]
    },
    {
      "name": "Object_4",
      "primitives": [
        {
          "attributes": {
            "NORMAL": 17,
            "POSITION": 16,
            "TEXCOORD_0": 18
          },
          "indices": 19,
          "material": 0,
          "mode": 4
        }
      ]
    },
    {
      "name": "Object_5",
      "primitives": [
        {
          "attributes": {
            "NORMAL": 21,
            "POSITION": 20,
            "TEXCOORD_0": 22
          },
          "indices": 23,
          "material": 0,
          "mode": 4
        }
      ]
    },
    {
      "name": "Object_6",
      "primitives": [
        {
          "attributes": {
            "NORMAL": 25,
            "POSITION": 24,
            "TEXCOORD_0": 26
          },
          "indices": 27,
          "material": 0,
          "mode": 4
        }
      ]
    },
    {
      "name": "Object_7",
      "primitives": [
        {
          "attributes": {
            "NORMAL": 29,
            "POSITION": 28,
            "TEXCOORD_0": 30
          },
          "indices": 31,
          "material": 0,
          "mode": 4
        }
      ]
    }
  ],
  "nodes": [
    {
      "children": [
        1
      ],
      "matrix": [
        1.0,
        0.0,
        0.0,
        0.0,
        0.0,
        2.220446049250313e-16,
        -1.0,
        0.0,
        0.0,
        1.0,
        2.220446049250313e-16,
        0.0,
        0.0,
        0.0,
        0.0,
        1.0
      ],
      "name": "Sketchfab_model"
    },
    {
      "children": [
        2,
        3,
        4,
        5,
        6,
        7,
        8,
        9
      ],
      "name": "57d0470a8b144094a468d747f1a53624.obj.cleaner"
    },
    {
      "mesh": 0,
      "name": "Object_2"
    },
    {
      "mesh": 1,
      "name": "Object_3"
    },
    {
      "mesh": 2,
      "name": "Object_4"
    },
    {
      "mesh": 3,
      "name": "Object_5"
    },
    {
      "mesh": 4,
      "name": "Object_6"
    },
    {
      "mesh": 5,
      "name": "Object_7"
    },
    {
      "mesh": 6,
      "name": "Object_8"
    },
    {
      "mesh": 7,
      "name": "Object_9"
    }
  ],
  "samplers": [
    {
      "magFilter": 9729,
      "minFilter": 9987,
      "wrapS": 10497,
      "wrapT": 10497
    }
  ],
  "scene": 0,
  "scenes": [
    {
      "name": "Sketchfab_Scene",
      "nodes": [
        0
      ]
    }
  ],
  "textures": [
    {
      "sampler": 0,
      "source": 0
    },
    {
      "sampler": 0,
      "source": 1
    }
  ]
}
