{
    "asset" : {
        "generator" : "Khronos glTF Blender I/O v1.7.33",
        "version" : "2.0"
    },
    "scene" : 0,
    "scenes" : [
        {
            "name" : "Scene",
            "nodes" : [
                13
            ]
        }
    ],
    "nodes" : [
        {
            "name" : "Object_4"
        },
        {
            "children" : [
                0
            ],
            "name" : "Cinema_4D_Editor",
            "rotation" : [
                -0.11140542477369308,
                0.8239724636077881,
                -0.07443871349096298,
                0.5505607724189758
            ],
            "translation" : [
                1.4901541471481323,
                1.6190078258514404,
                7.278841972351074
            ]
        },
        {
            "mesh" : 0,
            "name" : "GeoSphere0_Material#1_0"
        },
        {
            "children" : [
                2
            ],
            "name" : "GeoSphere0",
            "rotation" : [
                0.7071068286895752,
                0,
                0,
                0.7071068286895752
            ],
            "translation" : [
                0.008020568639039993,
                0.007124664261937141,
                -0.008365074172616005
            ]
        },
        {
            "mesh" : 1,
            "name" : "Legs_Material#1_0"
        },
        {
            "children" : [
                4
            ],
            "name" : "Legs"
        },
        {
            "mesh" : 2,
            "name" : "Sputnik_2_Material#1_0"
        },
        {
            "children" : [
                6
            ],
            "name" : "Sputnik_2"
        },
        {
            "mesh" : 3,
            "name" : "Tarpine_Material#1_0"
        },
        {
            "children" : [
                8
            ],
            "name" : "Tarpine"
        },
        {
            "children" : [
                3,
                5,
                7,
                9
            ],
            "name" : "Sputnik",
            "rotation" : [
                0,
                0,
                -0.6427875757217407,
                0.7660444378852844
            ]
        },
        {
            "children" : [
                1,
                10
            ],
            "name" : "RootNode"
        },
        {
            "children" : [
                11
            ],
            "name" : "Sputnik 1.fbx",
            "rotation" : [
                0.7071068286895752,
                0,
                0,
                0.7071068286895752
            ]
        },
        {
            "children" : [
                12
            ],
            "name" : "Sketchfab_model",
            "rotation" : [
                -0.7071068286895752,
                0,
                0,
                0.7071068286895752
            ]
        }
    ],
    "materials" : [
        {
            "doubleSided" : true,
            "name" : "Material1",
            "pbrMetallicRoughness" : {
                "baseColorTexture" : {
                    "index" : 0
                },
                "metallicFactor" : 0,
                "roughnessFactor" : 0.46719083189964294
            }
        }
    ],
    "meshes" : [
        {
            "name" : "GeoSphere0_Material#1_0",
            "primitives" : [
                {
                    "attributes" : {
                        "POSITION" : 0,
                        "NORMAL" : 1,
                        "TEXCOORD_0" : 2
                    },
                    "indices" : 3,
                    "material" : 0
                }
            ]
        },
        {
            "name" : "Legs_Material#1_0",
            "primitives" : [
                {
                    "attributes" : {
                        "POSITION" : 4,
                        "NORMAL" : 5,
                        "TEXCOORD_0" : 6
                    },
                    "indices" : 7,
                    "material" : 0
                }
            ]
        },
        {
            "name" : "Sputnik_2_Material#1_0",
            "primitives" : [
                {
                    "attributes" : {
                        "POSITION" : 8,
                        "NORMAL" : 9,
                        "TEXCOORD_0" : 10
                    },
                    "indices" : 11,
                    "material" : 0
                }
            ]
        },
        {
            "name" : "Tarpine_Material#1_0",
            "primitives" : [
                {
                    "attributes" : {
                        "POSITION" : 12,
                        "NORMAL" : 13,
                        "TEXCOORD_0" : 14
                    },
                    "indices" : 15,
                    "material" : 0
                }
            ]
        }
    ],
    "textures" : [
        {
            "sampler" : 0,
            "source" : 0
        }
    ],
    "images" : [
        {
            "bufferView" : 4,
            "mimeType" : "image/jpeg",
            "name" : "Material1_baseColor"
        }
    ],
    "accessors" : [
        {
            "bufferView" : 0,
            "componentType" : 5126,
            "count" : 739,
            "max" : [
                0.9173228144645691,
                0.9173228740692139,
                0.9173228144645691
            ],
            "min" : [
                -0.9173228144645691,
                -0.9173228740692139,
                -0.9173228144645691
            ],
            "type" : "VEC3"
        },
        {
            "bufferView" : 1,
            "componentType" : 5126,
            "count" : 739,
            "type" : "VEC3"
        },
        {
            "bufferView" : 2,
            "componentType" : 5126,
            "count" : 739,
            "type" : "VEC2"
        },
        {
            "bufferView" : 3,
            "componentType" : 5123,
            "count" : 3840,
            "type" : "SCALAR"
        },
        {
            "bufferView" : 5,
            "componentType" : 5126,
            "count" : 2527,
            "max" : [
                3.082016944885254,
                0.12773485481739044,
                3.037489414215088
            ],
            "min" : [
                -3.0625224113464355,
                -6.565164089202881,
                -3.1070499420166016
            ],
            "type" : "VEC3"
        },
        {
            "bufferView" : 6,
            "componentType" : 5126,
            "count" : 2527,
            "type" : "VEC3"
        },
        {
            "bufferView" : 7,
            "componentType" : 5126,
            "count" : 2527,
            "type" : "VEC2"
        },
        {
            "bufferView" : 8,
            "componentType" : 5123,
            "count" : 12291,
            "type" : "SCALAR"
        },
        {
            "bufferView" : 9,
            "componentType" : 5126,
            "count" : 11257,
            "max" : [
                1.0315942764282227,
                0.482534259557724,
                1.0117428302764893
            ],
            "min" : [
                -1.0098211765289307,
                -0.019014105200767517,
                -1.029672622680664
            ],
            "type" : "VEC3"
        },
        {
            "bufferView" : 10,
            "componentType" : 5126,
            "count" : 11257,
            "type" : "VEC3"
        },
        {
            "bufferView" : 11,
            "componentType" : 5126,
            "count" : 11257,
            "type" : "VEC2"
        },
        {
            "bufferView" : 12,
            "componentType" : 5123,
            "count" : 58929,
            "type" : "SCALAR"
        },
        {
            "bufferView" : 13,
            "componentType" : 5126,
            "count" : 1874,
            "max" : [
                1.0753129720687866,
                0.1103387400507927,
                1.0561532974243164
            ],
            "min" : [
                -1.055199146270752,
                -0.1349823772907257,
                -1.0743669271469116
            ],
            "type" : "VEC3"
        },
        {
            "bufferView" : 14,
            "componentType" : 5126,
            "count" : 1874,
            "type" : "VEC3"
        },
        {
            "bufferView" : 15,
            "componentType" : 5126,
            "count" : 1874,
            "type" : "VEC2"
        },
        {
            "bufferView" : 16,
            "componentType" : 5123,
            "count" : 8640,
            "type" : "SCALAR"
        }
    ],
    "bufferViews" : [
        {
            "buffer" : 0,
            "byteLength" : 8868,
            "byteOffset" : 0
        },
        {
            "buffer" : 0,
            "byteLength" : 8868,
            "byteOffset" : 8868
        },
        {
            "buffer" : 0,
            "byteLength" : 5912,
            "byteOffset" : 17736
        },
        {
            "buffer" : 0,
            "byteLength" : 7680,
            "byteOffset" : 23648
        },
        {
            "buffer" : 0,
            "byteLength" : 82950,
            "byteOffset" : 31328
        },
        {
            "buffer" : 0,
            "byteLength" : 30324,
            "byteOffset" : 114280
        },
        {
            "buffer" : 0,
            "byteLength" : 30324,
            "byteOffset" : 144604
        },
        {
            "buffer" : 0,
            "byteLength" : 20216,
            "byteOffset" : 174928
        },
        {
            "buffer" : 0,
            "byteLength" : 24582,
            "byteOffset" : 195144
        },
        {
            "buffer" : 0,
            "byteLength" : 135084,
            "byteOffset" : 219728
        },
        {
            "buffer" : 0,
            "byteLength" : 135084,
            "byteOffset" : 354812
        },
        {
            "buffer" : 0,
            "byteLength" : 90056,
            "byteOffset" : 489896
        },
        {
            "buffer" : 0,
            "byteLength" : 117858,
            "byteOffset" : 579952
        },
        {
            "buffer" : 0,
            "byteLength" : 22488,
            "byteOffset" : 697812
        },
        {
            "buffer" : 0,
            "byteLength" : 22488,
            "byteOffset" : 720300
        },
        {
            "buffer" : 0,
            "byteLength" : 14992,
            "byteOffset" : 742788
        },
        {
            "buffer" : 0,
            "byteLength" : 17280,
            "byteOffset" : 757780
        }
    ],
    "samplers" : [
        {
            "magFilter" : 9729,
            "minFilter" : 9987
        }
    ],
    "buffers" : [
        {
            "byteLength" : 775060,
            "uri" : "data:application/octet-stream;base64,"
        }
    ]
}
